<svg xmlns="http://www.w3.org/2000/svg" width="60" height="54" viewBox="0 0 60 54">
  <g id="Group_1" data-name="Group 1" transform="translate(-730 -463)">
    <path id="Path_Copy_2" data-name="Path Copy 2" d="M26.376.372A18.936,18.936,0,0,0,11.638,15.355,13.381,13.381,0,0,0,13.151,42h9.386a1.91,1.91,0,0,0,0-3.819H13.151a9.549,9.549,0,0,1,.111-19.1,1.889,1.889,0,0,0,1.866-1.7,14.99,14.99,0,0,1,29.836,0,2,2,0,0,0,1.977,1.7,9.549,9.549,0,0,1,0,19.1H37.555a1.91,1.91,0,0,0,0,3.819h9.386a13.382,13.382,0,0,0,1.515-26.634A18.787,18.787,0,0,0,26.376.372Z" transform="translate(730 463)" fill="#0063b2"/>
    <path id="Path_Copy_3" data-name="Path Copy 3" d="M16.31,11.025a1.854,1.854,0,0,0,2.67-2.574L18.934,8.4,11.064.545a1.858,1.858,0,0,0-2.624,0l0,0L.566,8.4A1.854,1.854,0,1,0,3.145,11.07l.046-.046,4.7-4.7V29.647a1.855,1.855,0,0,0,3.711,0V6.325Z" transform="translate(751 485.5)" fill="#0063b2"/>
  </g>
</svg>
